<svg width="95" height="76" viewBox="0 0 95 76" fill="none" xmlns="http://www.w3.org/2000/svg">
<g filter="url(#filter0_d_1_47)">
<rect x="14" y="6" width="67" height="40" rx="8" fill="white"/>
<path d="M27.6729 30.0682C27.4627 30.0682 27.2823 29.9929 27.1317 29.8423C26.9812 29.6918 26.9059 29.5114 26.9059 29.3011C26.9059 29.0909 26.9812 28.9105 27.1317 28.7599C27.2823 28.6094 27.4627 28.5341 27.6729 28.5341C27.8832 28.5341 28.0636 28.6094 28.2141 28.7599C28.3647 28.9105 28.44 29.0909 28.44 29.3011C28.44 29.4403 28.4045 29.5682 28.3335 29.6847C28.2653 29.8011 28.1729 29.8949 28.0565 29.9659C27.9428 30.0341 27.815 30.0682 27.6729 30.0682ZM30.9776 30.0682C30.7674 30.0682 30.587 29.9929 30.4364 29.8423C30.2859 29.6918 30.2106 29.5114 30.2106 29.3011C30.2106 29.0909 30.2859 28.9105 30.4364 28.7599C30.587 28.6094 30.7674 28.5341 30.9776 28.5341C31.1879 28.5341 31.3683 28.6094 31.5188 28.7599C31.6694 28.9105 31.7447 29.0909 31.7447 29.3011C31.7447 29.4403 31.7092 29.5682 31.6381 29.6847C31.57 29.8011 31.4776 29.8949 31.3612 29.9659C31.2475 30.0341 31.1197 30.0682 30.9776 30.0682ZM34.2823 30.0682C34.0721 30.0682 33.8917 29.9929 33.7411 29.8423C33.5906 29.6918 33.5153 29.5114 33.5153 29.3011C33.5153 29.0909 33.5906 28.9105 33.7411 28.7599C33.8917 28.6094 34.0721 28.5341 34.2823 28.5341C34.4925 28.5341 34.6729 28.6094 34.8235 28.7599C34.9741 28.9105 35.0494 29.0909 35.0494 29.3011C35.0494 29.4403 35.0138 29.5682 34.9428 29.6847C34.8746 29.8011 34.7823 29.8949 34.6658 29.9659C34.5522 30.0341 34.4244 30.0682 34.2823 30.0682ZM37.587 30.0682C37.3768 30.0682 37.1964 29.9929 37.0458 29.8423C36.8952 29.6918 36.82 29.5114 36.82 29.3011C36.82 29.0909 36.8952 28.9105 37.0458 28.7599C37.1964 28.6094 37.3768 28.5341 37.587 28.5341C37.7972 28.5341 37.9776 28.6094 38.1282 28.7599C38.2788 28.9105 38.354 29.0909 38.354 29.3011C38.354 29.4403 38.3185 29.5682 38.2475 29.6847C38.1793 29.8011 38.087 29.8949 37.9705 29.9659C37.8569 30.0341 37.729 30.0682 37.587 30.0682ZM40.8917 30.0682C40.6815 30.0682 40.5011 29.9929 40.3505 29.8423C40.1999 29.6918 40.1246 29.5114 40.1246 29.3011C40.1246 29.0909 40.1999 28.9105 40.3505 28.7599C40.5011 28.6094 40.6815 28.5341 40.8917 28.5341C41.1019 28.5341 41.2823 28.6094 41.4329 28.7599C41.5835 28.9105 41.6587 29.0909 41.6587 29.3011C41.6587 29.4403 41.6232 29.5682 41.5522 29.6847C41.484 29.8011 41.3917 29.8949 41.2752 29.9659C41.1616 30.0341 41.0337 30.0682 40.8917 30.0682ZM44.1964 30.0682C43.9862 30.0682 43.8058 29.9929 43.6552 29.8423C43.5046 29.6918 43.4293 29.5114 43.4293 29.3011C43.4293 29.0909 43.5046 28.9105 43.6552 28.7599C43.8058 28.6094 43.9862 28.5341 44.1964 28.5341C44.4066 28.5341 44.587 28.6094 44.7376 28.7599C44.8881 28.9105 44.9634 29.0909 44.9634 29.3011C44.9634 29.4403 44.9279 29.5682 44.8569 29.6847C44.7887 29.8011 44.6964 29.8949 44.5799 29.9659C44.4663 30.0341 44.3384 30.0682 44.1964 30.0682ZM47.5011 30.0682C47.2908 30.0682 47.1104 29.9929 46.9599 29.8423C46.8093 29.6918 46.734 29.5114 46.734 29.3011C46.734 29.0909 46.8093 28.9105 46.9599 28.7599C47.1104 28.6094 47.2908 28.5341 47.5011 28.5341C47.7113 28.5341 47.8917 28.6094 48.0423 28.7599C48.1928 28.9105 48.2681 29.0909 48.2681 29.3011C48.2681 29.4403 48.2326 29.5682 48.1616 29.6847C48.0934 29.8011 48.0011 29.8949 47.8846 29.9659C47.771 30.0341 47.6431 30.0682 47.5011 30.0682ZM50.8058 30.0682C50.5955 30.0682 50.4151 29.9929 50.2646 29.8423C50.114 29.6918 50.0387 29.5114 50.0387 29.3011C50.0387 29.0909 50.114 28.9105 50.2646 28.7599C50.4151 28.6094 50.5955 28.5341 50.8058 28.5341C51.016 28.5341 51.1964 28.6094 51.3469 28.7599C51.4975 28.9105 51.5728 29.0909 51.5728 29.3011C51.5728 29.4403 51.5373 29.5682 51.4663 29.6847C51.3981 29.8011 51.3058 29.8949 51.1893 29.9659C51.0756 30.0341 50.9478 30.0682 50.8058 30.0682ZM54.1104 30.0682C53.9002 30.0682 53.7198 29.9929 53.5692 29.8423C53.4187 29.6918 53.3434 29.5114 53.3434 29.3011C53.3434 29.0909 53.4187 28.9105 53.5692 28.7599C53.7198 28.6094 53.9002 28.5341 54.1104 28.5341C54.3207 28.5341 54.5011 28.6094 54.6516 28.7599C54.8022 28.9105 54.8775 29.0909 54.8775 29.3011C54.8775 29.4403 54.842 29.5682 54.771 29.6847C54.7028 29.8011 54.6104 29.8949 54.494 29.9659C54.3803 30.0341 54.2525 30.0682 54.1104 30.0682ZM57.4151 30.0682C57.2049 30.0682 57.0245 29.9929 56.8739 29.8423C56.7234 29.6918 56.6481 29.5114 56.6481 29.3011C56.6481 29.0909 56.7234 28.9105 56.8739 28.7599C57.0245 28.6094 57.2049 28.5341 57.4151 28.5341C57.6254 28.5341 57.8058 28.6094 57.9563 28.7599C58.1069 28.9105 58.1822 29.0909 58.1822 29.3011C58.1822 29.4403 58.1467 29.5682 58.0756 29.6847C58.0075 29.8011 57.9151 29.8949 57.7987 29.9659C57.685 30.0341 57.5572 30.0682 57.4151 30.0682ZM60.7198 30.0682C60.5096 30.0682 60.3292 29.9929 60.1786 29.8423C60.0281 29.6918 59.9528 29.5114 59.9528 29.3011C59.9528 29.0909 60.0281 28.9105 60.1786 28.7599C60.3292 28.6094 60.5096 28.5341 60.7198 28.5341C60.93 28.5341 61.1104 28.6094 61.261 28.7599C61.4116 28.9105 61.4869 29.0909 61.4869 29.3011C61.4869 29.4403 61.4513 29.5682 61.3803 29.6847C61.3121 29.8011 61.2198 29.8949 61.1033 29.9659C60.9897 30.0341 60.8619 30.0682 60.7198 30.0682ZM64.0245 30.0682C63.8143 30.0682 63.6339 29.9929 63.4833 29.8423C63.3327 29.6918 63.2575 29.5114 63.2575 29.3011C63.2575 29.0909 63.3327 28.9105 63.4833 28.7599C63.6339 28.6094 63.8143 28.5341 64.0245 28.5341C64.2347 28.5341 64.4151 28.6094 64.5657 28.7599C64.7163 28.9105 64.7915 29.0909 64.7915 29.3011C64.7915 29.4403 64.756 29.5682 64.685 29.6847C64.6168 29.8011 64.5245 29.8949 64.408 29.9659C64.2944 30.0341 64.1665 30.0682 64.0245 30.0682ZM67.3292 30.0682C67.119 30.0682 66.9386 29.9929 66.788 29.8423C66.6374 29.6918 66.5621 29.5114 66.5621 29.3011C66.5621 29.0909 66.6374 28.9105 66.788 28.7599C66.9386 28.6094 67.119 28.5341 67.3292 28.5341C67.5394 28.5341 67.7198 28.6094 67.8704 28.7599C68.021 28.9105 68.0962 29.0909 68.0962 29.3011C68.0962 29.4403 68.0607 29.5682 67.9897 29.6847C67.9215 29.8011 67.8292 29.8949 67.7127 29.9659C67.5991 30.0341 67.4712 30.0682 67.3292 30.0682Z" fill="black"/>
<path d="M55.5 46H39.5L46.0858 52.5858C46.8668 53.3668 48.1332 53.3668 48.9142 52.5858L55.5 46Z" fill="white"/>
</g>
<defs>
<filter id="filter0_d_1_47" x="0" y="0" width="95" height="76" filterUnits="userSpaceOnUse" color-interpolation-filters="sRGB">
<feFlood flood-opacity="0" result="BackgroundImageFix"/>
<feColorMatrix in="SourceAlpha" type="matrix" values="0 0 0 0 0 0 0 0 0 0 0 0 0 0 0 0 0 0 127 0" result="hardAlpha"/>
<feMorphology radius="2" operator="erode" in="SourceAlpha" result="effect1_dropShadow_1_47"/>
<feOffset dy="8"/>
<feGaussianBlur stdDeviation="8"/>
<feColorMatrix type="matrix" values="0 0 0 0 0.105882 0 0 0 0 0.129412 0 0 0 0 0.172549 0 0 0 0.12 0"/>
<feBlend mode="normal" in2="BackgroundImageFix" result="effect1_dropShadow_1_47"/>
<feBlend mode="normal" in="SourceGraphic" in2="effect1_dropShadow_1_47" result="shape"/>
</filter>
</defs>
</svg>
