<svg version="1.1" xmlns="http://www.w3.org/2000/svg" xmlns:xlink="http://www.w3.org/1999/xlink" width="60" height="60" viewBox="0,0,43.26717,41.68211"><g transform="translate(-206.00878,-164.1238)"><g data-paper-data="{&quot;isPaintingLayer&quot;:true}" fill-rule="nonzero" stroke="#000000" stroke-width="2.5" stroke-linejoin="miter" stroke-miterlimit="10" stroke-dasharray="" stroke-dashoffset="0" style="mix-blend-mode: normal"><path d="M238.65815,176.10863l8.31948,5.90415l-9.1246,5.36741" fill="#ffea00" stroke-linecap="round"/><path d="M238.65815,180.13419c0,8.15194 -7.02899,14.76038 -15.69968,14.76038c-8.67069,0 -15.69968,-6.60845 -15.69968,-14.76038c0,-8.15194 7.02899,-14.76039 15.69968,-14.76039c8.67069,0 15.69968,6.60845 15.69968,14.76039z" fill="#ffd800" stroke-linecap="butt"/><path d="M231.68051,177.85304c0,0.66698 -0.66084,1.20767 -1.47603,1.20767c-0.81519,0 -1.47604,-0.54069 -1.47604,-1.20767c0,-0.66698 0.66085,-1.20767 1.47604,-1.20767c0.81519,0 1.47603,0.54069 1.47603,1.20767z" fill="#000000" stroke-linecap="butt"/><path d="M216.11502,194.08946l-1.07348,9.66135l5.36741,0.80511" fill="none" stroke-linecap="round"/><path d="M229.26518,194.08946l-0.26837,7.78275h6.17253" fill="none" stroke-linecap="round"/></g></g></svg>